# xmcd
#
# Track frame offsets:
#	150
#	24825
#	50599
#	65513
#	94139
#	115815
#	142434
#	163865
#	186595
#	205842
#
# Disc length: 3071 seconds
#
# Revision: 1
# Processed by: cddbd v1.5.2PL0 Copyright (c) Steve Scherf et al.
# Submitted via: audiograbber 1.83.01
#
DISCID=970bfd0a
DTITLE=Gerry Rafferty - City To City
DYEAR=1978
DGENRE=Rock
TTITLE0=Waiting For The Day
TTITLE1=Stealin Time
TTITLE2=Matties Rag
TTITLE3=Whatever Written In Your Heart
TTITLE4=City to City
TTITLE5=Baker Street
TTITLE6=Home And Dry
TTITLE7=Island
TTITLE8=Right Down The Line
TTITLE9=The Ark
EXTD=
EXTT0=
EXTT1=
EXTT2=
EXTT3=
EXTT4=
EXTT5=
EXTT6=
EXTT7=
EXTT8=
EXTT9=
PLAYORDER=
